<svg width="410" height="404" viewBox="0 0 410 404" fill="none" xmlns="http://www.w3.org/2000/svg">
  <g clip-path="url(#clip0_17_31)">
    <path d="M399.641 59.5255L215.643 388.971C211.844 395.76 202.199 395.855 198.267 389.154L10.5817 59.621C6.37317 52.4272 12.1587 43.542 20.3828 44.7586L205.223 72.5631C206.398 72.738 207.593 72.734 208.767 72.5511L389.601 44.8541C397.787 43.628 403.629 52.4207 399.486 59.6306L399.641 59.5255Z" fill="url(#paint0_linear_17_31)"/>
    <path d="M292.965 1.57436L156.801 27.2747C155.222 27.5728 153.897 28.597 153.291 30.0625L95.0893 172.265C94.2498 174.308 95.8453 176.551 98.0464 176.27L176.967 166.39C177.686 166.299 178.398 166.541 178.923 167.049L236.912 222.83C238.741 224.58 241.783 223.942 242.599 221.451L306.549 26.2631C307.424 23.5924 305.047 20.9934 302.302 21.5119L207.519 39.0933C206.055 39.3659 205.05 40.7893 205.318 42.2523L214.155 91.2369C214.476 92.9692 216.354 93.9525 217.945 93.2124L289.651 59.8452C290.645 59.3804 291.436 58.5755 291.837 57.5773L308.442 15.1878C309.847 11.607 306.683 7.86913 302.95 8.55535L292.965 1.57436Z" fill="url(#paint1_linear_17_31)"/>
  </g>
  <defs>
    <linearGradient id="paint0_linear_17_31" x1="6.00017" y1="32.9999" x2="235" y2="344" gradientUnits="userSpaceOnUse">
      <stop stop-color="#41D1FF"/>
      <stop offset="1" stop-color="#BD34FE"/>
    </linearGradient>
    <linearGradient id="paint1_linear_17_31" x1="194.651" y1="8.81818" x2="236.076" y2="292.989" gradientUnits="userSpaceOnUse">
      <stop stop-color="#FFEA83"/>
      <stop offset="0.0833333" stop-color="#FFDD35"/>
      <stop offset="1" stop-color="#FFA800"/>
    </linearGradient>
    <clipPath id="clip0_17_31">
      <rect width="400" height="400" fill="white" transform="translate(5 2)"/>
    </clipPath>
  </defs>
</svg>
